<svg width="1280" height="832" viewBox="0 0 1280 832" fill="none" xmlns="http://www.w3.org/2000/svg">
<g clip-path="url(#clip0_18_2)">
<rect width="1280" height="832" fill="#100F0F" fill-opacity="0.78"/>
<g filter="url(#filter0_f_18_2)">
<circle cx="639.5" cy="415.5" r="243.5" fill="#E87070"/>
</g>
<path d="M109.757 385.204H74.414V436.387H97.58V410.746H81.641L90.254 402.232H107.381V445H97.58V437.674L90.254 445H73.127L64.613 436.387V385.204L73.127 376.591H101.144L109.757 385.204ZM167.141 445H157.439V419.359H134.174V445H124.373V385.204L132.986 376.591H167.141V445ZM163.577 385.204H134.174V418.171L141.599 410.746H157.439V391.342L163.577 385.204ZM242.979 444.901H233.178V391.342L239.316 385.303H231.297L218.13 410.746H211.002L198.33 385.303H190.41L196.548 391.342V444.901H186.747V376.591H204.27L214.467 399.064H215.655L226.05 376.591H242.979V444.901ZM296.699 445H262.544V393.619L271.157 385.204H261.356V376.591H296.699V385.204H272.345V409.558L279.572 402.232H296.699V410.746H272.345V436.387H296.699V445Z" fill="#E87070"/>
<path d="M335.677 441.15C335.677 442.213 335.292 443.13 334.522 443.9C333.789 444.633 332.89 445 331.827 445H316.427V441.15H331.277V433.45H320.277C319.214 433.45 318.297 433.083 317.527 432.35C316.794 431.58 316.427 430.663 316.427 429.6V421.9C316.427 420.837 316.794 419.938 317.527 419.205C318.297 418.435 319.214 418.05 320.277 418.05H335.677V421.9H320.827V429.6H331.827C332.89 429.6 333.789 429.985 334.522 430.755C335.292 431.488 335.677 432.387 335.677 433.45V441.15ZM363.74 445H344.49V425.75L348.34 421.9H344.49V418.05H363.74V421.9H348.89V432.9L352.19 429.6H363.74V433.45H348.89V441.15H363.74V445ZM395.64 445H390.03L378.59 433.45H390.69V421.9H376.39V445H371.99V425.695L375.84 421.9H371.99V418.05H391.24C392.267 418.05 393.165 418.435 393.935 419.205C394.705 419.975 395.09 420.873 395.09 421.9V432.35C395.09 435.283 393.807 436.75 391.24 436.75H387.94V437.355L395.64 445ZM426.726 445H422.326V437.3H408.026V445H403.626V421.9C403.626 420.837 403.992 419.938 404.726 419.205C405.496 418.435 406.412 418.05 407.476 418.05H426.726V445ZM422.326 433.45V421.9H408.026V436.75L411.326 433.45H422.326ZM459.429 441.15C459.429 442.213 459.044 443.13 458.274 443.9C457.541 444.633 456.643 445 455.579 445H440.179C439.116 445 438.199 444.633 437.429 443.9C436.696 443.13 436.329 442.213 436.329 441.15V421.9C436.329 420.837 436.696 419.938 437.429 419.205C438.199 418.435 439.116 418.05 440.179 418.05H455.579C456.643 418.05 457.541 418.435 458.274 419.205C459.044 419.938 459.429 420.837 459.429 421.9V425.75H455.029V421.9H440.729V441.15H455.029V437.3H459.429V441.15ZM490.803 445H486.403V433.45H472.103V445H467.703V418.05H472.103V432.9L475.403 429.6H486.403V418.05H490.803V445ZM505.081 445H500.131V440.6H505.081V445ZM518.831 445H513.881V440.6H518.831V445ZM532.581 445H527.631V440.6H532.581V445ZM546.331 445H541.381V440.6H546.331V445ZM560.081 445H555.131V440.6H560.081V445Z" fill="white"/>
</g>
<defs>
<filter id="filter0_f_18_2" x="-118" y="-342" width="1515" height="1515" filterUnits="userSpaceOnUse" color-interpolation-filters="sRGB">
<feFlood flood-opacity="0" result="BackgroundImageFix"/>
<feBlend mode="normal" in="SourceGraphic" in2="BackgroundImageFix" result="shape"/>
<feGaussianBlur stdDeviation="257" result="effect1_foregroundBlur_18_2"/>
</filter>
<clipPath id="clip0_18_2">
<rect width="1280" height="832" fill="white"/>
</clipPath>
</defs>
</svg>
